# xmcd
#
# Track frame offsets: 
#        150
#        11455
#        26578
#        41891
#        56173
#        69860
#        81653
#        98406
#        122295
#        141295
#        157219
#        170945
#        183473
#        194736
#        206793
#        220429
#        234282
#        252089
#        271433
#        286758
#        300608
#        312711
#
# Disc length: 4388 seconds
#
# Revision: 2
# Processed by: cddbd v1.5.2PL0 Copyright (c) Steve Scherf et al.
# Submitted via: ExactAudioCopyFreeDBPlugin 1.0
#
DISCID=4f112216
DTITLE=Various Artist - Masterpieces Of Modern Soul Vol. 1
DYEAR=2003
DGENRE=No, thanks.
TTITLE0=Debra Johnson - To Get Love You've Got To Bring Love
TTITLE1=Millie Jackson - Don't Send Nobody Else
TTITLE2=Houston Outlaws - Ain't No Telling
TTITLE3=The Mayberry Movement - Two Wrongs Don't Make A Right
TTITLE4=Ted Taylor - Fair Warning
TTITLE5=Sam Nesbit - Chase Those Clouds Away
TTITLE6=The Millionaires - I'm The One Who Loves You
TTITLE7=Idris Muhammad - I'm A Believer
TTITLE8=Mary Love Comer - Come Out The Sandbox
TTITLE9=Jean Shy - What Can I Do, I'm So In Love With You
TTITLE10=Jacqueline Jones - A Frown On My Face
TTITLE11=The Four Tees - One More Chance
TTITLE12=Vernon Garrett - To Be A Part Of You
TTITLE13=Tender Loving Care - Love Me Baby
TTITLE14=Ronnie Walker - You've Go To Try Harder
TTITLE15=Lynn Varnado - Second Hand Love
TTITLE16=The Pretenders - I Call It Love
TTITLE17=Gil Billingsley - I'm Just Me
TTITLE18=Denise La Salla - Here I Am Again
TTITLE19=Garland Green - Come Through Me
TTITLE20=Al Christian - I'm A Lonely Man
TTITLE21=Lou Pride - Bringin' Me Back Home
EXTD=
EXTT0=
EXTT1=
EXTT2=
EXTT3=
EXTT4=
EXTT5=
EXTT6=
EXTT7=
EXTT8=
EXTT9=
EXTT10=
EXTT11=
EXTT12=
EXTT13=
EXTT14=
EXTT15=
EXTT16=
EXTT17=
EXTT18=
EXTT19=
EXTT20=
EXTT21=
PLAYORDER=
